<svg xmlns="http://www.w3.org/2000/svg" viewBox="0 0 293.79 302.04"><defs><style>.cls-1{fill:#fff;}.cls-1,.cls-2{stroke:#fff;stroke-miterlimit:10;}.cls-2{fill:#222051;}</style></defs><title>soccer_1</title><g id="Layer_2" data-name="Layer 2"><g id="Layer_1-2" data-name="Layer 1"><path class="cls-1" d="M160,35C86.57,35,26.77,94.78,26.77,168.28S86.57,301.54,160,301.54s133.26-59.8,133.26-133.26A133.38,133.38,0,0,0,160,35Z"/><path class="cls-2" d="M242.41,56.66a133.23,133.23,0,1,0,7.08,143.14h0a133.18,133.18,0,0,0-7.12-143.14Zm-19.84.81-12,38.29L182.7,107,141.39,76.61l-1-28,35.48-24.13A116.67,116.67,0,0,1,222.57,57.47ZM92.67,24.08l31.54,24.38,1.08,28.6-41.8,30-22.77-6.88L49.58,52.4A116.66,116.66,0,0,1,92.67,24.08ZM55,115.28l23.09,7L93.59,171l-19,21.64-45.5-6.44a115.32,115.32,0,0,1-12.35-47.79ZM93.43,243.77l-7-40.15,19.15-21.84,55.32.36,20.28,22.69L167.66,246a117.3,117.3,0,0,1-74.23-2.18ZM233.63,195l-39.82-.12-21.08-23.61,16.41-49.49L216,110.89l34.88,24.82A115.84,115.84,0,0,1,233.63,195Z"/></g></g></svg>